<svg width="16" height="19" viewBox="0 0 16 19" fill="none" xmlns="http://www.w3.org/2000/svg">
<path d="M12.76 3.32C12.0764 2.53962 11.6997 1.53743 11.7 0.5H8.61001V12.9C8.58617 13.571 8.30288 14.2066 7.81977 14.6729C7.33667 15.1393 6.69146 15.3999 6.02001 15.4C4.60001 15.4 3.42001 14.24 3.42001 12.8C3.42001 11.08 5.08001 9.79 6.79001 10.32V7.16C3.34001 6.7 0.320007 9.38 0.320007 12.8C0.320007 16.13 3.08001 18.5 6.01001 18.5C9.15001 18.5 11.7 15.95 11.7 12.8V6.51C12.953 7.40985 14.4574 7.89265 16 7.89V4.8C16 4.8 14.12 4.89 12.76 3.32Z" fill="white"/>
</svg>
