<svg width="50" height="50" viewBox="0 0 50 50" fill="none" xmlns="http://www.w3.org/2000/svg">
<circle cx="25" cy="25" r="25" fill="#13131A" fill-opacity="0.9"/>
<path d="M32.0854 17.9247C31.164 16.994 30.0665 16.256 28.8569 15.7539C27.6473 15.2518 26.3499 14.9955 25.0402 15.0001C19.5528 15.0001 15.0804 19.4724 15.0804 24.9599C15.0804 26.7187 15.5427 28.4272 16.407 29.9347L15 35.1006L20.2764 33.7136C21.7337 34.5076 23.3719 34.9297 25.0402 34.9297C30.5276 34.9297 35 30.4573 35 24.9699C35 22.3066 33.9648 19.8041 32.0854 17.9247ZM25.0402 33.2413C23.5528 33.2413 22.0955 32.8393 20.8191 32.0855L20.5176 31.9046L17.3819 32.7287L18.2161 29.6734L18.0151 29.3619C17.1887 28.0422 16.7499 26.5169 16.7487 24.9599C16.7487 20.397 20.4673 16.6785 25.0301 16.6785C27.2412 16.6785 29.3216 17.5428 30.8794 19.1106C31.6507 19.8784 32.262 20.7917 32.6778 21.7975C33.0936 22.8033 33.3056 23.8816 33.3015 24.9699C33.3216 29.5327 29.603 33.2413 25.0402 33.2413ZM29.5829 27.0503C29.3317 26.9297 28.1055 26.3267 27.8844 26.2362C27.6533 26.1558 27.4925 26.1156 27.3216 26.3568C27.1508 26.6081 26.6784 27.1709 26.5377 27.3317C26.397 27.5026 26.2462 27.5227 25.995 27.392C25.7437 27.2714 24.9397 27.0001 23.995 26.1558C23.2513 25.4925 22.7588 24.6785 22.608 24.4272C22.4673 24.1759 22.5879 24.0453 22.7186 23.9146C22.8291 23.8041 22.9698 23.6232 23.0905 23.4825C23.2111 23.3418 23.2613 23.2312 23.3417 23.0704C23.4221 22.8996 23.3819 22.7589 23.3216 22.6383C23.2613 22.5176 22.7588 21.2915 22.5578 20.789C22.3568 20.3066 22.1457 20.3669 21.995 20.3568H21.5126C21.3417 20.3568 21.0804 20.4171 20.8492 20.6684C20.6281 20.9197 19.9849 21.5227 19.9849 22.7488C19.9849 23.9749 20.8794 25.1609 21 25.3217C21.1206 25.4925 22.7588 28.0051 25.2513 29.0805C25.8442 29.3418 26.3065 29.4925 26.6683 29.6031C27.2613 29.794 27.804 29.7639 28.2362 29.7036C28.7186 29.6332 29.7136 29.1006 29.9146 28.5176C30.1256 27.9347 30.1256 27.4423 30.0553 27.3317C29.9849 27.2212 29.8342 27.1709 29.5829 27.0503Z" fill="white"/>
</svg>
